# xmcd
# 
# Track frame offsets:
#     150
#     13650
#     27765
#     39661
#     50006
#     61996
#     75841
#     88007
#     100249
#     112502
#     124136
#     137009
#     148945
#     160495
#     172422
#     184203
#     197921
#     210315
#     222203
#     235917
#     245433
#     257257
#     267175
#     280778
#     293917
#     306550
#     317106
# 
# Disc length: 4391
# 
# Revision: 0
# Processed by: cddbd v1.5.2PL0 Copyright (c) Steve Scherf et al.
# Submitted via: fre:ac v1.0.27
# 
DISCID=8b11251b
DTITLE=Lightnin' Hopkins - Blues Master Works
DYEAR=2013
DGENRE=Blues
TTITLE0=Katie Mae Blues
TTITLE1=That mean old twister
TTITLE2=Can't get that woman off my mind
TTITLE3=Miss me Blues
TTITLE4=Come back baby
TTITLE5=ravellers Blues
TTITLE6=Sugar mama
TTITLE7=Howling wolf Blues
TTITLE8=Baby child
TTITLE9=See see rider
TTITLE10=Whiskey headed woman
TTITLE11=Shotgun
TTITLE12=Lightning Blues
TTITLE13=Airplane Blues
TTITLE14=T'model Blues
TTITLE15=Tryin' to find a friend
TTITLE16=Fast life
TTITLE17=European Blues
TTITLE18=Automobile Blues
TTITLE19=Henny Penny Blues
TTITLE20=Whiskey Blues
TTITLE21=Penitentiary Blues
TTITLE22=All I got is gone
TTITLE23=Praying ground Blues
TTITLE24=Freight train Blues
TTITLE25=Nothin' but the Blues
TTITLE26=Sittin' here thinkin'
EXTD=Von CD als Zugabe zur Dppel LP
EXTT0=
EXTT1=
EXTT2=
EXTT3=
EXTT4=
EXTT5=
EXTT6=
EXTT7=
EXTT8=
EXTT9=
EXTT10=
EXTT11=
EXTT12=
EXTT13=
EXTT14=
EXTT15=
EXTT16=
EXTT17=
EXTT18=
EXTT19=
EXTT20=
EXTT21=
EXTT22=
EXTT23=
EXTT24=
EXTT25=
EXTT26=
PLAYORDER=
